<svg width="1280" height="720" xmlns="http://www.w3.org/2000/svg" xmlns:xlink="http://www.w3.org/1999/xlink" overflow="hidden"><g><rect x="0" y="0" width="1280" height="720"/><g><g><g><path d="M632.031 236.75C582.625 236.75 542.781 276.594 542.781 326 542.781 341.619 546.925 356.281 553.938 369.031 560.631 362.019 567.963 355.006 575.931 347.356 596.013 328.55 619.6 309.425 639.362 295.4 640.638 294.444 641.912 293.806 643.506 293.806 647.013 293.806 649.881 296.675 649.881 300.181 649.881 302.412 648.925 304.006 647.331 305.281L647.331 305.281C618.963 325.681 581.35 357.237 555.85 385.925 555.85 385.925 552.344 389.75 550.75 391.662L550.75 391.662C536.406 408.556 526.844 423.856 526.844 434.694L545.969 434.694C545.969 427.681 557.125 412.381 574.019 394.213 589.638 407.6 609.719 415.569 632.031 415.569 647.969 415.569 663.269 411.425 676.338 403.775L676.338 403.775C744.55 365.844 753.156 296.038 753.156 217.625 753.156 217.625 678.888 238.025 632.031 236.75Z" fill="#00B050" fill-opacity="0.34"/></g></g></g><g><g><g><path d="M626.25 423.5C593.838 423.534 567.534 397.287 567.5 364.875 567.494 358.858 568.413 352.875 570.225 347.138 569.987 346.61 569.778 346.07 569.598 345.52L567.715 339.5C553.807 371.855 568.763 409.359 601.118 423.267 633.474 437.174 670.977 422.219 684.885 389.864 685.558 388.296 686.169 386.702 686.715 385.085L683.232 378.927C676.825 405.171 653.264 423.6 626.25 423.5Z" fill="#FFFFFF"/><path d="M719.198 382.82 690.323 332.28C688.119 328.532 684.098 326.23 679.75 326.228L643.25 326.228 638.667 284.013C637.665 278.308 634.442 273.233 629.705 269.9 624.952 266.565 619.053 265.291 613.348 266.367 610.776 266.815 608.31 267.732 606.07 269.073L567.87 291.663C563.022 294.497 560.748 300.285 562.37 305.663L574.385 344.117C575.933 349.192 580.62 352.656 585.925 352.648 587.172 352.601 588.407 352.397 589.602 352.04 595.943 350.008 599.45 343.236 597.45 336.885L588.195 307.5 597.575 301.925 602.958 332.297C604.82 342.689 613.866 350.248 624.422 350.235L672.75 350.235 698 394.872C700.14 398.712 704.215 401.065 708.61 401 710.724 400.968 712.802 400.441 714.675 399.46 720.439 396.053 722.444 388.676 719.198 382.82ZM712.302 395.07C708.833 397.045 704.422 395.888 702.367 392.465L675.672 345.235 624.422 345.235C616.289 345.247 609.318 339.425 607.88 331.42L602.17 299.198 606.195 296.81C607.37 296.085 607.735 294.545 607.011 293.37 606.304 292.223 604.815 291.843 603.645 292.51L601.237 293.938 601.237 293.938 582.237 305.212 592.708 338.42C593.904 342.088 591.901 346.031 588.233 347.227 588.224 347.229 588.216 347.232 588.208 347.235 587.465 347.455 586.7 347.591 585.927 347.64 582.825 347.651 580.081 345.626 579.177 342.658L567.165 304.203C566.246 301.058 567.561 297.69 570.367 296L608.667 273.353C614.336 270.03 621.414 270.283 626.833 274 630.448 276.536 632.922 280.391 633.722 284.735L638.775 331.235 679.75 331.235C682.32 331.21 684.706 332.566 686 334.788L714.865 385.312 714.865 385.325C716.758 388.733 715.628 393.027 712.302 395.062Z" fill="#FFFFFF"/><path d="M613.75 261C624.796 261 633.75 252.046 633.75 241 633.75 229.954 624.796 221 613.75 221 602.704 221 593.75 229.954 593.75 241 593.763 252.04 602.709 260.987 613.75 261ZM613.75 226C622.034 226 628.75 232.716 628.75 241 628.75 249.284 622.034 256 613.75 256 605.466 256 598.75 249.284 598.75 241 598.758 232.719 605.469 226.008 613.75 226Z" fill="#FFFFFF"/></g></g></g></g></svg>